<svg width="28" height="28" viewBox="0 0 28 28" fill="none" xmlns="http://www.w3.org/2000/svg">
<path d="M10.7217 7.40834C8.34171 10.08 6.70837 13.9183 6.55671 14.28L3.92004 13.1483C3.16171 12.8217 2.97504 11.83 3.55837 11.2467L7.07004 7.735C7.61837 7.18667 8.41171 6.94167 9.18171 7.09334L10.7217 7.40834ZM12.46 19.2617C12.81 19.6117 13.3233 19.705 13.7667 19.495C15.12 18.865 18.025 17.3833 19.9033 15.505C25.2584 10.15 25.305 5.78667 24.99 3.92C24.9083 3.45334 24.535 3.08 24.0683 2.99834C22.2017 2.68334 17.8384 2.73 12.4833 8.085C10.605 9.96334 9.13504 12.8683 8.49337 14.2217C8.28337 14.665 8.38837 15.19 8.72671 15.5283L12.46 19.2617ZM20.5917 17.2783C17.92 19.6583 14.0817 21.2917 13.72 21.4433L14.8517 24.08C15.1783 24.8383 16.17 25.025 16.7534 24.4417L20.265 20.93C20.8134 20.3817 21.0584 19.5883 20.9067 18.8183L20.5917 17.2783ZM10.43 20.3117C10.6634 21.5483 10.255 22.6917 9.47337 23.4733C8.57504 24.3717 5.78671 25.0367 3.97837 25.3867C3.17337 25.5383 2.46171 24.8267 2.61337 24.0217C2.96337 22.2133 3.61671 19.425 4.52671 18.5267C5.30837 17.745 6.45171 17.3367 7.68837 17.57C9.05337 17.8267 10.1734 18.9467 10.43 20.3117ZM15.1667 10.5C15.1667 9.21667 16.2167 8.16667 17.5 8.16667C18.7833 8.16667 19.8334 9.21667 19.8334 10.5C19.8334 11.7833 18.7833 12.8333 17.5 12.8333C16.2167 12.8333 15.1667 11.7833 15.1667 10.5Z" fill="#1EB720"/>
</svg>
