<svg width="28" height="28" viewBox="0 0 28 28" fill="none" xmlns="http://www.w3.org/2000/svg">
<path d="M10.1506 18.55L5.60057 14L10.1506 9.44997C10.6056 8.99497 10.6056 8.27163 10.1506 7.81663C9.69557 7.36163 8.97223 7.36163 8.51723 7.81663L3.16223 13.1717C2.70723 13.6267 2.70723 14.3617 3.16223 14.8167L8.51723 20.1833C8.97223 20.6383 9.69557 20.6383 10.1506 20.1833C10.6056 19.7283 10.6056 19.005 10.1506 18.55ZM17.8506 18.55L22.4006 14L17.8506 9.44997C17.3956 8.99497 17.3956 8.27163 17.8506 7.81663C18.3056 7.36163 19.0289 7.36163 19.4839 7.81663L24.8389 13.1717C25.2939 13.6267 25.2939 14.3617 24.8389 14.8167L19.4839 20.1833C19.0289 20.6383 18.3056 20.6383 17.8506 20.1833C17.3956 19.7283 17.3956 19.005 17.8506 18.55Z" fill="#1EB720"/>
</svg>
