<svg width="22" height="26" viewBox="0 0 22 26" fill="none" xmlns="http://www.w3.org/2000/svg">
<g clip-path="url(#clip0_103_100)">
<path d="M11.3908 11.1798H0.900216C-0.0175176 11.1798 -0.3498 9.92847 0.457172 9.45719L16.1694 0.129064C16.9764 -0.342219 17.8625 0.567843 17.4036 1.39665L12.1662 10.7248C12.008 11.0173 11.7073 11.1961 11.375 11.1961L11.3908 11.1798Z" fill="#1EB720"/>
<path d="M22.1664 3.6718V22.3281C22.1664 23.2869 20.9322 23.6119 20.4733 22.7993L15.2359 13.4712C15.0777 13.1787 15.0777 12.8212 15.2359 12.5449L20.4733 3.21676C20.9322 2.38797 22.1664 2.72924 22.1664 3.68805V3.6718Z" fill="#1EB720"/>
<path d="M12.1661 15.2753L17.4035 24.6034C17.8624 25.4322 16.9763 26.3423 16.1693 25.871L0.457083 16.5428C-0.349889 16.0716 -0.0176076 14.804 0.915949 14.804H11.3908C11.7072 14.804 12.0079 14.9828 12.1819 15.2753H12.1661Z" fill="#1EB720"/>
</g>
<defs>
<clipPath id="clip0_103_100">
<rect width="22" height="26" fill="white"/>
</clipPath>
</defs>
</svg>
